<svg width="164" height="177" viewBox="0 0 164 177" fill="none" xmlns="http://www.w3.org/2000/svg">
<path d="M148.389 157.995L163.047 0H0L0.191558 2.05025L14.6351 158.017L14.7577 159.315L80.9066 177H81.9487L148.251 159.3L148.373 158.002L148.389 157.995ZM81.6652 34.5076H129.041L127.616 50.4376L80.876 70.4386L81.6575 74.0376H125.517L120.467 129.726L81.4966 140.125L42.5413 129.741L40.0893 103.073H56.1266L57.4139 116.591L57.5365 117.904L81.1748 123.952H82.1939L105.572 117.698L105.687 116.392L107.893 91.4205L108.07 89.385H38.7484L37.2926 73.3591L85.6343 53.4392L84.868 49.8255H35.2161L33.7986 34.4855H81.6115L81.6652 34.5076Z" fill="url(#paint0_linear_3207_101)"/>
<defs>
<linearGradient id="paint0_linear_3207_101" x1="0" y1="0" x2="81.5234" y2="177" gradientUnits="userSpaceOnUse">
<stop stop-color="#3AD4AF"/>
<stop offset="0.4375" stop-color="#243244"/>
</linearGradient>
</defs>
</svg>
