<svg width="215" height="130" viewBox="0 0 215 130" fill="none" xmlns="http://www.w3.org/2000/svg">
<g filter="url(#filter0_d_3207_118)">
<path d="M210.697 118.676C203.179 120.619 198.53 118.76 194.359 112.394C184.994 98.1369 174.657 84.5335 164.682 70.6789C163.396 68.8864 162.061 67.1273 160.395 64.8992C148.591 81.0824 136.803 96.4951 125.74 112.528C121.783 118.257 117.628 120.753 110.242 118.726L154.625 58.198L113.309 3.53332C120.414 2.12608 125.328 2.84646 129.68 9.31307C139.292 23.5865 149.893 37.1731 160.461 51.5471C171.095 37.2234 181.565 23.62 191.457 9.4806C195.43 3.75111 199.7 1.57324 206.839 3.6841C201.431 10.9716 196.139 18.1418 190.814 25.2618C183.625 34.8612 176.569 44.5779 169.117 53.9763C166.463 57.3269 166.891 59.5047 169.265 62.671C183.048 81.0825 196.667 99.6782 210.697 118.676ZM4.04946 57.1928C5.23652 51.145 6.0279 44.98 7.67659 39.0494C17.5688 3.14801 58.1267 -11.7788 85.9897 10.469C102.312 23.5195 106.368 41.9142 105.56 62.6543H13.5624C12.1775 99.8624 38.5402 122.328 72.1406 110.869C83.9288 106.848 90.8698 97.4668 94.3486 85.7398C96.1127 79.8595 99.0309 78.9381 104.472 80.6134C101.685 95.2889 95.3708 107.552 82.1812 115.225C62.3968 126.717 34.1547 122.998 19.2999 107.033C10.5288 97.6511 6.80278 85.9743 5.15409 73.3594C4.90678 71.349 4.39569 69.3722 4 67.3786C4.03297 63.9833 4.04946 60.5881 4.04946 57.1928ZM13.7273 54.6967H96.8711C96.327 27.7915 79.84 8.67646 57.3024 8.50893C32.5719 8.3079 14.799 26.9706 13.7273 54.6967Z" fill="url(#paint0_linear_3207_118)"/>
</g>
<defs>
<filter id="filter0_d_3207_118" x="0" y="0" width="214.697" height="129.906" filterUnits="userSpaceOnUse" color-interpolation-filters="sRGB">
<feFlood flood-opacity="0" result="BackgroundImageFix"/>
<feColorMatrix in="SourceAlpha" type="matrix" values="0 0 0 0 0 0 0 0 0 0 0 0 0 0 0 0 0 0 127 0" result="hardAlpha"/>
<feOffset dy="4"/>
<feGaussianBlur stdDeviation="2"/>
<feComposite in2="hardAlpha" operator="out"/>
<feColorMatrix type="matrix" values="0 0 0 0 0 0 0 0 0 0 0 0 0 0 0 0 0 0 0.25 0"/>
<feBlend mode="normal" in2="BackgroundImageFix" result="effect1_dropShadow_3207_118"/>
<feBlend mode="normal" in="SourceGraphic" in2="effect1_dropShadow_3207_118" result="shape"/>
</filter>
<linearGradient id="paint0_linear_3207_118" x1="38.8118" y1="11.1382" x2="174.233" y2="149.234" gradientUnits="userSpaceOnUse">
<stop stop-color="#3AD4AF"/>
<stop offset="0.427083" stop-color="#243244"/>
<stop offset="1" stop-color="#243244"/>
</linearGradient>
</defs>
</svg>
