<svg width="164" height="160" viewBox="0 0 164 160" fill="none" xmlns="http://www.w3.org/2000/svg">
<path fill-rule="evenodd" clip-rule="evenodd" d="M81.9993 0C36.7183 0 0 36.7101 0 81.9993C0 118.23 23.4953 148.966 56.0761 159.81C60.1728 160.57 61.6774 158.031 61.6774 155.865C61.6774 153.91 61.6013 147.45 61.566 140.598C38.7537 145.559 33.9401 130.924 33.9401 130.924C30.21 121.446 24.8355 118.925 24.8355 118.925C17.3944 113.836 25.3963 113.942 25.3963 113.942C33.6291 114.519 37.9662 122.392 37.9662 122.392C45.2797 134.925 57.1489 131.302 61.8281 129.209C62.5641 123.909 64.6891 120.29 67.0342 118.242C48.821 116.172 29.6736 109.139 29.6736 77.7193C29.6736 68.7668 32.8782 61.452 38.1237 55.7082C37.2709 53.6442 34.4642 45.3041 38.9167 34.0093C38.9167 34.0093 45.8011 31.8055 61.471 42.4146C68.0132 40.5964 75.0294 39.6825 81.9993 39.6513C88.9652 39.6825 95.9854 40.5937 102.54 42.4118C118.191 31.8028 125.067 34.0066 125.067 34.0066C129.53 45.3 126.724 53.6415 125.872 55.7054C131.13 61.4492 134.311 68.7641 134.311 77.7166C134.311 109.211 115.129 116.144 96.8694 118.176C99.8119 120.72 102.433 125.712 102.433 133.361C102.433 144.333 102.338 153.163 102.338 155.864C102.338 158.046 103.815 160.603 107.97 159.797C140.532 148.943 164 118.217 164 81.9993C163.999 36.7128 127.284 0.00135778 81.9993 0.00135778V0Z" fill="url(#paint0_linear_3210_119)"/>
<path d="M31.0573 117.732C30.8767 118.139 30.2358 118.261 29.6519 117.983C29.0545 117.717 28.7218 117.161 28.9146 116.753C29.0911 116.332 29.7334 116.216 30.3268 116.497C30.9242 116.765 31.2637 117.326 31.056 117.733L31.0573 117.732ZM34.3787 121.437C33.989 121.8 33.2245 121.632 32.7058 121.057C32.1681 120.487 32.0676 119.722 32.4654 119.354C32.8701 118.993 33.6115 119.164 34.1492 119.735C34.6842 120.313 34.7901 121.071 34.38 121.439L34.3787 121.437ZM37.6131 126.159C37.1107 126.509 36.2879 126.182 35.78 125.453C35.2776 124.722 35.2776 123.846 35.7936 123.497C36.3001 123.147 37.1107 123.463 37.6267 124.186C38.1264 124.926 38.1264 125.802 37.6131 126.157V126.159ZM42.0412 130.723C41.5931 131.218 40.6344 131.085 39.9337 130.41C39.2181 129.749 39.0185 128.808 39.468 128.314C39.9242 127.817 40.887 127.955 41.5917 128.626C42.3073 129.286 42.5232 130.228 42.0439 130.721L42.0412 130.723ZM48.1516 133.372C47.952 134.014 47.0314 134.306 46.1012 134.032C45.1738 133.751 44.5668 133 44.7569 132.351C44.947 131.703 45.8744 131.4 46.81 131.692C47.7374 131.972 48.3444 132.719 48.1516 133.372ZM54.8636 133.862C54.8867 134.538 54.0991 135.098 53.1255 135.111C52.1438 135.134 51.3494 134.586 51.3399 133.92C51.3399 133.237 52.1112 132.685 53.0915 132.666C54.0651 132.648 54.8649 133.191 54.8649 133.861L54.8636 133.862ZM61.1071 132.8C61.2239 133.459 60.5463 134.136 59.5781 134.317C58.6276 134.493 57.745 134.083 57.6228 133.43C57.506 132.754 58.1958 132.076 59.1463 131.901C60.1158 131.734 60.9849 132.132 61.1071 132.801V132.8Z" fill="url(#paint1_linear_3210_119)"/>
<defs>
<linearGradient id="paint0_linear_3210_119" x1="34.7623" y1="7.60522" x2="127.722" y2="160.823" gradientUnits="userSpaceOnUse">
<stop stop-color="#3AD4AF"/>
<stop offset="0.479167" stop-color="#243244"/>
<stop offset="1" stop-color="#243244"/>
</linearGradient>
<linearGradient id="paint1_linear_3210_119" x1="35.6979" y1="117.236" x2="43.5687" y2="138.984" gradientUnits="userSpaceOnUse">
<stop stop-color="#3AD4AF"/>
<stop offset="0.479167" stop-color="#243244"/>
<stop offset="1" stop-color="#243244"/>
</linearGradient>
</defs>
</svg>
