<svg width="156" height="177" viewBox="0 0 156 177" fill="none" xmlns="http://www.w3.org/2000/svg">
<path d="M14.1605 158.874L0 0H155.766L141.605 158.874L77.7101 176.834" fill="url(#paint0_linear_3207_100)"/>
<path d="M78.0555 163.019L129.517 148.858L141.605 12.779H78.0555" fill="url(#paint1_linear_3207_100)"/>
<path d="M78.0555 71.8387H52.1521L50.4252 51.8067H78.0555V32.4656H29.0118L34.1925 91.5253H78.0555V71.8387ZM77.7101 122.609L55.9513 116.738L54.5698 101.196H35.2286L37.6462 131.935L77.7101 142.987V122.609Z" fill="#EBEBEB"/>
<path d="M77.7101 71.8387V91.5253H101.887L99.469 116.738L77.7101 122.609V142.987L117.774 131.935L123.3 71.8387H77.7101ZM77.7101 32.4656V51.8067H125.027L126.754 32.4656H77.7101Z" fill="white"/>
<defs>
<linearGradient id="paint0_linear_3207_100" x1="-0.159406" y1="2.98618e-07" x2="78.0555" y2="176.834" gradientUnits="userSpaceOnUse">
<stop stop-color="#3AD4AF"/>
<stop offset="0.683728" stop-color="#243244"/>
<stop offset="1" stop-color="#243244"/>
</linearGradient>
<linearGradient id="paint1_linear_3207_100" x1="78.0555" y1="12.9225" x2="109.83" y2="163.019" gradientUnits="userSpaceOnUse">
<stop stop-color="#3AD4AF"/>
<stop offset="0.494792" stop-color="#243244"/>
<stop offset="1" stop-color="#243244"/>
</linearGradient>
</defs>
</svg>
