<svg width="177" height="177" viewBox="0 0 177 177" fill="none" xmlns="http://www.w3.org/2000/svg">
<path d="M0 0H177V177H0V0Z" fill="url(#paint0_linear_3207_99)"/>
<path d="M46.5399 147.914L60.0846 139.717C62.6981 144.35 65.0752 148.27 70.7772 148.27C76.2427 148.27 79.6894 146.132 79.6894 137.816V81.2603H96.3226V138.051C96.3226 155.279 86.2239 163.121 71.49 163.121C58.1839 163.121 50.4602 156.229 46.5392 147.913L46.5399 147.914ZM105.357 146.131L118.9 138.29C122.466 144.113 127.1 148.39 135.297 148.39C142.19 148.39 146.584 144.944 146.584 140.191C146.584 134.488 142.069 132.468 134.465 129.142L130.308 127.358C118.307 122.251 110.347 115.835 110.347 102.29C110.347 89.8144 119.852 80.3089 134.704 80.3089C145.278 80.3089 152.882 83.9927 158.347 93.6164L145.396 101.934C142.544 96.8252 139.456 94.8056 134.703 94.8056C129.832 94.8056 126.742 97.8948 126.742 101.934C126.742 106.924 129.832 108.945 136.96 112.034L141.118 113.816C155.257 119.876 163.218 126.054 163.218 139.954C163.218 154.925 151.455 163.123 135.653 163.123C120.208 163.123 110.227 155.757 105.356 146.132" fill="white"/>
<defs>
<linearGradient id="paint0_linear_3207_99" x1="0" y1="0" x2="177" y2="177" gradientUnits="userSpaceOnUse">
<stop stop-color="#3AD4AF"/>
<stop offset="0.421875" stop-color="#243244"/>
</linearGradient>
</defs>
</svg>
