<svg width="185" height="187" viewBox="0 0 185 187" fill="none" xmlns="http://www.w3.org/2000/svg">
<path fill-rule="evenodd" clip-rule="evenodd" d="M120.81 47.6053C116.889 35.2066 110.6 24.2331 101.737 14.7903C99.4968 12.4017 97.0065 10.2135 95.4436 7.24225C94.4559 5.36135 93.5148 3.45444 92.5527 1.5613L91.9414 0L91.7712 0.614735C91.6914 3.7037 89.969 5.79717 87.8249 7.753C85.4098 9.95198 83.1634 12.3406 80.8446 14.6481L73.7138 24.1735L67.9486 34.942L64.0926 45.5164L63.9767 45.68C61.8552 52.7587 60.8087 60.0376 60.2953 67.3869C60.1011 70.1501 60.3239 72.9516 60.476 75.7286C60.6943 79.6984 61.3734 83.5994 62.3912 87.4422C66.0906 101.398 73.5994 112.972 83.8665 122.808C85.7727 124.635 87.8339 126.297 89.8229 128.035L90.7037 131.105L91.5228 135.87L91.9143 140.845C91.9098 141.854 91.8691 142.868 91.9278 143.874C91.9444 144.132 92.2757 144.371 92.4624 144.619L94.1246 145.212L95.8546 145.896L95.558 141.475L95.5445 137.12L96.1422 130.486L96.5758 129.042L97.818 126.808C99.3508 125.557 100.993 124.42 102.389 123.027C104.914 120.508 107.435 117.954 109.695 115.194C112.626 111.614 115.15 107.707 117.176 103.517C118.53 100.714 119.807 97.8545 120.862 94.9261C121.793 92.3448 122.369 89.6305 123.103 86.9743L123.295 86.4009C124.809 79.232 125.063 71.9898 124.507 64.7016C124.06 58.828 122.701 53.1593 120.81 47.6053V47.6053ZM90.8468 124.485C91.0786 123.306 91.3662 122.133 91.5755 120.95C91.3662 122.133 91.0802 123.306 90.8468 124.485ZM95.9916 125.299L95.019 123.135L95.9916 125.299L97.4205 126.539L95.9916 125.299ZM156.45 152.713C155.206 150.292 153.382 148.454 150.97 147.247C148.949 146.238 146.776 145.795 144.542 145.73C142.868 145.682 141.187 145.769 139.51 145.79C138.021 145.808 136.53 145.834 135.041 145.821C133.29 145.802 131.539 145.749 129.788 145.698C129.497 145.689 129.291 145.749 129.155 146.049C128.943 146.515 128.692 146.965 128.431 147.475L128.723 147.57C129.592 147.726 130.465 147.859 131.33 148.035C132.441 148.26 132.941 148.908 132.992 149.859C133.067 151.214 133.097 152.572 133.093 153.93C133.07 159.304 133.033 164.677 132.993 170.049C132.99 170.404 132.984 170.774 132.889 171.107C132.78 171.493 132.661 171.991 132.378 172.181C131.888 172.511 131.281 172.734 130.699 172.831C129.854 172.971 129.713 173.01 129.449 173.854L129.335 174.276C129.208 174.736 129.276 174.826 129.749 174.831C132.462 174.862 135.174 174.921 137.885 174.912C140.359 174.903 142.833 175.056 145.298 174.583C147.627 174.138 149.801 173.358 151.786 172.039C154.36 170.324 156.212 168.034 157.189 165.044C157.978 162.63 158.155 160.166 157.887 157.641C157.704 155.9 157.244 154.259 156.45 152.713V152.713ZM151.697 167.486C150.245 170.23 148.08 172.062 144.986 172.545C143.048 172.846 141.107 172.759 139.26 172.014C138.09 171.543 137.655 170.517 137.619 169.304C137.584 168.116 137.571 166.927 137.569 165.738C137.563 161.558 137.563 157.377 137.569 153.197C137.572 151.881 137.595 150.561 137.616 149.243C137.631 148.316 137.822 148.006 138.712 147.931C142.621 147.598 146.35 148.026 149.447 150.82C151.362 152.548 152.453 154.751 152.906 157.282C153.094 158.337 153.151 159.417 153.269 160.487C153.174 162.931 152.849 165.309 151.697 167.486ZM184.504 162.958C183.733 161.053 182.272 159.859 180.437 159.094C179.811 158.833 179.165 158.617 178.489 158.363L178.725 158.21C179.455 157.735 180.268 157.351 180.898 156.765C182.427 155.341 183.063 153.551 182.765 151.424C182.482 149.401 181.488 147.916 179.713 146.952C178.102 146.081 176.364 145.763 174.566 145.764C171.456 145.767 168.343 145.815 165.233 145.821C164.161 145.822 163.089 145.741 162.017 145.726C161.809 145.723 161.5 145.776 161.411 145.917C161.166 146.299 161.003 146.74 160.829 147.165C160.728 147.413 160.827 147.549 161.106 147.585C161.854 147.689 162.601 147.819 163.351 147.932C164.386 148.09 164.888 148.637 164.951 149.697L164.965 150.326C164.966 153.621 164.977 156.916 164.963 160.212C164.947 163.501 164.91 166.794 164.871 170.084C164.867 170.499 164.811 170.915 164.752 171.326C164.664 171.947 164.337 172.375 163.71 172.51L161.938 172.864C161.729 172.907 161.426 172.901 161.341 173.033C161.015 173.527 160.753 174.066 160.789 174.718L160.972 174.768L166.924 174.917L168.118 174.912C170.177 174.888 172.24 174.929 174.297 174.822C176.524 174.709 178.615 174.037 180.548 172.883C182.607 171.652 184.191 170.029 184.754 167.589C185.115 166.03 185.117 164.463 184.504 162.958V162.958ZM169.382 148.919C169.391 148.257 169.679 147.969 170.326 147.952C171.921 147.908 173.505 147.917 175.044 148.475C177.034 149.197 178.258 150.94 178.236 153.071C178.225 153.889 178.237 154.699 177.941 155.485C177.355 157.033 176.232 157.849 174.639 158.008C173.807 158.094 172.969 158.103 172.228 158.143L169.756 158.033C169.427 158.021 169.284 157.874 169.286 157.531L169.382 148.919V148.919ZM179.63 169.554C178.833 171.314 177.382 172.239 175.565 172.56C174.112 172.817 172.647 172.742 171.21 172.366C170.147 172.089 169.714 171.222 169.501 170.26C169.358 169.616 169.382 168.85 169.37 168.181C169.351 167.147 169.366 165.001 169.366 165.001H169.345C169.345 163.472 169.349 162.148 169.34 160.681C169.339 160.365 169.391 160.207 169.772 160.22C171.124 160.261 172.481 160.284 173.833 160.337C175.042 160.385 176.174 160.749 177.239 161.331C178.859 162.218 179.835 163.576 180.103 165.442C180.307 166.856 180.22 168.248 179.63 169.554V169.554ZM31.1908 171.202L31.2194 162.888C31.2239 161.637 31.0673 160.411 30.6638 159.224C29.5511 155.956 26.4826 154.468 23.2875 155.641C21.8346 156.175 20.5322 156.984 19.2885 157.901C18.5643 158.437 18.5643 158.437 18.0403 157.673C16.5572 155.514 14.4387 154.776 11.9725 155.572C10.378 156.086 8.98372 156.965 7.66325 157.987C7.53979 158.082 7.29135 158.187 7.21758 158.131C7.09411 158.037 7.00829 157.816 7.0113 157.649L7.10164 156.172C7.10917 155.861 7.05045 155.549 7.02033 155.224C6.42409 155.433 5.9483 155.643 5.44992 155.765C3.90963 156.147 2.35879 156.499 0.809463 156.858C0.434553 156.946 0.0385625 157.06 0.00242651 157.498C-0.0352151 157.927 0.37282 157.999 0.68901 158.128C1.35451 158.4 2.0155 158.689 2.67348 158.982C3.22606 159.23 3.43233 159.678 3.42932 160.281C3.41878 162.857 3.43534 165.431 3.42029 168.008C3.41426 169.055 3.36608 170.101 3.31941 171.149C3.27725 172.077 2.96558 172.465 2.08025 172.699C1.61048 172.825 1.13318 172.909 0.660403 173.022C0.556512 173.046 0.378843 173.114 0.377337 173.166C0.357763 173.62 0.333673 174.085 0.408956 174.527C0.424013 174.606 0.896792 174.606 1.15878 174.637L1.33494 174.626C3.15981 174.599 4.98467 174.569 6.81105 174.55C7.77919 174.539 8.74583 174.548 9.79678 174.548L9.90971 173.065C9.30744 172.953 8.76992 172.869 8.23992 172.751C7.41331 172.568 7.06099 172.123 7.03991 171.276L7.02485 170.063C7.01582 166.917 7.00377 163.773 7.00377 160.628C7.00377 160.171 7.19047 159.808 7.58646 159.534C8.42512 158.959 9.31045 158.502 10.2906 158.247C12.3564 157.71 14.1482 158.456 14.9431 160.241C15.1946 160.804 15.3918 161.426 15.4475 162.038C15.7396 165.191 15.6132 168.347 15.437 171.5C15.3994 172.181 15.0847 172.523 14.4237 172.69L12.8698 173.023C12.7449 173.056 12.5627 172.97 12.5537 173.075C12.519 173.511 12.5386 174.18 12.5386 174.18H12.909L17.6398 174.337C18.9362 174.334 20.2341 174.493 21.5289 174.527C21.7608 174.531 21.9671 174.566 21.9806 174.294C22.0017 173.863 21.9836 173.458 21.9641 173.027L21.7171 172.982L20.3846 172.678C19.4857 172.462 19.1756 172.115 19.1726 171.191C19.162 168.915 19.1921 166.639 19.1726 164.364C19.162 163.062 19.1123 161.761 19.0295 160.463C19.0069 160.117 19.0596 159.891 19.3307 159.697C20.1287 159.119 20.9914 158.674 21.9385 158.42C24.8519 157.64 27.2369 159.262 27.3875 162.313C27.535 165.255 27.4733 168.208 27.4507 171.156C27.4432 172.182 27.1089 172.493 26.1137 172.768L25.7704 172.858C24.7511 173.106 24.7601 173.106 24.8203 174.206C24.8399 174.55 24.9332 174.638 25.2946 174.629C27.3709 174.582 29.4472 174.569 31.5235 174.551C32.3727 174.543 33.2219 174.551 34.1464 174.551L34.3346 173.12C33.5231 172.901 32.7747 172.739 32.052 172.499C31.4136 172.279 31.1878 171.887 31.1908 171.202V171.202ZM102.693 158.6C103.549 157.794 103.555 156.73 103.315 155.548C102.638 156.268 101.879 156.6 101.013 156.663C99.8522 156.747 98.7124 156.644 97.6313 156.175C94.7073 154.899 91.8285 154.99 88.9587 156.389C86.5451 157.563 85.0605 159.394 84.9114 162.169C84.8166 163.948 85.1448 165.631 86.3132 167.046C87.0133 167.893 87.9122 168.442 88.9255 168.821C89.3622 168.985 89.3953 169.196 89.0294 169.479C88.7614 169.688 88.4769 169.878 88.1908 170.06C87.5795 170.45 86.9637 170.835 86.3448 171.213C85.982 171.436 85.8585 171.721 85.9774 172.156C86.3253 173.438 87.2211 174.178 88.3413 174.718L88.7494 175.007L88.3925 175.369C87.2949 176.273 86.1536 177.126 85.1027 178.085C84.2203 178.891 83.9358 179.971 84.2023 181.162C84.7398 183.54 86.2921 185.011 88.4949 185.687C92.3449 186.87 95.96 186.191 99.2559 183.875C101.21 182.5 102.612 180.711 103.038 178.249C103.515 175.482 102.002 173.082 99.2936 172.586C97.5018 172.256 95.6679 172.161 93.8551 171.95C93.0089 171.852 92.1507 171.794 91.3271 171.597C90.6269 171.429 90.2791 170.849 90.3439 170.283C90.4086 169.727 90.9913 169.208 91.6583 169.155C93.0014 169.045 94.3173 168.832 95.555 168.257C98.8343 166.734 100.357 164.067 99.9756 160.476C99.9259 159.993 99.8175 159.516 99.7197 158.953C100.769 159.132 101.843 159.403 102.693 158.6V158.6ZM92.7424 175.447C94.0764 175.487 95.5941 175.571 97.0606 176.007C98.351 176.389 99.4125 177.059 99.7257 178.522C100.104 180.29 99.2664 182.049 97.5816 182.994C96.0037 183.878 94.2902 183.951 92.5527 183.769C91.0651 183.613 89.7266 183.09 88.6545 181.974C87.2422 180.504 87.2347 178.47 88.6485 177.005C89.9118 175.696 90.5878 175.426 92.7424 175.447V175.447ZM96.0805 164.801C95.3035 167.326 93.042 167.674 91.2699 166.867C89.7597 166.18 89.1017 164.829 88.7569 163.286C88.6229 162.692 88.5913 162.076 88.513 161.469C88.5446 160.599 88.6861 159.764 89.055 158.981C90.1858 156.569 92.9637 156.713 94.501 157.805C95.1605 158.273 95.6197 158.909 95.9073 159.663C96.5457 161.351 96.6105 163.071 96.0805 164.801ZM81.9724 172.849C81.4379 172.762 80.9003 172.649 80.3809 172.488C79.4654 172.204 79.354 172.03 79.3435 171.046C79.3164 168.306 79.2983 165.566 79.2682 162.827C79.2531 161.594 79.1086 160.379 78.7367 159.201C77.758 156.097 74.7602 154.43 71.761 155.346C70.0987 155.855 68.6713 156.802 67.3418 157.914L66.857 158.291L66.8585 157.785C66.8901 157.202 66.9519 156.62 66.9473 156.037C66.9443 155.733 66.8299 155.427 66.7742 155.159C65.6404 155.507 64.6241 155.855 63.5867 156.121C62.5463 156.387 61.4848 156.568 60.4323 156.785C59.9099 156.892 59.5259 157.213 59.5349 157.579C59.5485 158.094 59.9686 158.193 60.336 158.348C61.0015 158.625 61.6655 158.904 62.3234 159.201C62.7932 159.414 62.9844 159.808 62.9799 160.32C62.9468 163.882 62.9257 167.445 62.8745 171.008C62.8595 172.133 62.5794 172.43 61.4893 172.678L61.0135 172.774C60.0047 172.95 59.9761 172.991 60.0454 174.072L60.0514 174.251C60.0393 174.667 60.2185 174.802 60.6401 174.797C63.3202 174.765 66.0018 174.75 68.6819 174.761C69.8307 174.765 69.9542 174.673 69.9301 173.475L69.8759 172.959C69.2194 172.848 68.5915 172.767 67.9772 172.629C67.3343 172.484 67.1039 172.216 67.0437 171.552C66.988 170.945 66.9699 170.329 66.9639 169.717C66.9338 166.917 66.9097 164.117 66.8961 161.319C66.8931 160.614 67.0211 159.96 67.6595 159.505C68.6277 158.819 69.6876 158.421 70.8591 158.34C73.2501 158.173 75.0674 159.612 75.1969 162.033C75.3565 165.02 75.3083 168.017 75.3459 171.01C75.349 171.233 75.3098 171.458 75.2797 171.679C75.2225 172.117 75.0117 172.445 74.575 172.559C74.1489 172.672 73.7168 172.773 73.2817 172.84C72.6327 172.938 72.6192 172.933 72.5695 173.598L72.5861 174.047C72.6628 174.82 72.6644 174.797 73.4353 174.79C76.028 174.768 78.6193 174.755 81.2105 174.758C82.2946 174.761 82.3714 174.709 82.3804 173.574L82.3774 173.305C82.394 173.014 82.266 172.897 81.9724 172.849V172.849ZM118.187 155.534C115.469 154.86 112.891 155.361 110.443 156.647C108.064 157.897 106.474 159.828 105.869 162.495C105.257 165.191 105.55 167.821 106.723 170.324C107.486 171.95 108.66 173.207 110.259 174.024C114.002 175.938 118.581 175.07 121.517 172.508C123.834 170.488 124.685 167.798 124.736 164.469C124.705 164.136 124.673 163.494 124.586 162.857C124.093 159.233 121.623 156.387 118.187 155.534V155.534ZM120.245 169.534C119.524 172.418 117.068 173.699 114.298 172.708C112.884 172.204 111.827 171.239 111.116 169.935C109.481 166.937 109.166 163.75 110.097 160.481C110.717 158.303 112.482 157.112 114.581 157.262C116.457 157.395 117.899 158.31 118.958 159.86C120.073 161.496 120.504 163.357 120.618 165.312C120.638 165.625 120.621 165.939 120.621 166.254L120.754 166.269C120.588 167.359 120.51 168.471 120.245 169.534V169.534ZM49.8339 155.487C46.9747 154.823 44.2961 155.479 41.8148 156.955C39.6692 158.23 38.2825 160.135 37.751 162.625C37.2526 164.951 37.4559 167.237 38.2674 169.465C38.7613 170.823 39.5096 172.017 40.6072 172.949C42.9184 174.907 45.6196 175.403 48.4939 174.857C50.9271 174.394 53.0651 173.296 54.6189 171.242C56.0734 169.321 56.6275 167.116 56.6847 164.726C56.5989 163.969 56.5778 163.198 56.4197 162.46C55.6338 158.773 53.5108 156.338 49.8339 155.487V155.487ZM52.1662 169.525C51.4691 172.393 48.9742 173.707 46.2234 172.716C44.4572 172.078 43.3069 170.765 42.5796 169.081C41.4143 166.376 41.1764 163.561 41.9307 160.707C42.5089 158.525 44.2509 156.918 46.9175 157.303C48.5541 157.539 49.8309 158.388 50.7825 159.738C52.0683 161.559 52.4914 163.645 52.5502 165.836V166.284L52.6586 166.301C52.5005 167.378 52.4222 168.473 52.1662 169.525V169.525Z" fill="url(#paint0_linear_3207_102)"/>
<defs>
<linearGradient id="paint0_linear_3207_102" x1="92.5" y1="0" x2="92.5" y2="186.258" gradientUnits="userSpaceOnUse">
<stop stop-color="#3AD4AF"/>
<stop offset="0.479167" stop-color="#243244"/>
<stop offset="1" stop-color="#243244"/>
</linearGradient>
</defs>
</svg>
