<svg width="300" height="204" viewBox="0 0 300 204" fill="none" xmlns="http://www.w3.org/2000/svg">
<path d="M72.0276 185.873H60.4689C60.0621 166.341 58.9352 147.974 57.0935 130.77H56.9916L39.393 185.873H30.5907L13.0978 130.77H12.9944C11.6969 147.293 10.8795 165.659 10.5399 185.873H0C0.680787 161.29 2.38507 138.245 5.11362 116.733H19.4403L36.1172 167.535H36.2191L52.9987 116.733H66.7071C69.7089 141.927 71.4811 164.979 72.0253 185.873H72.0276ZM122.17 134.863C117.462 160.431 111.253 179.012 103.547 190.604C97.5417 199.535 90.9638 204 83.8009 204C81.8913 204 79.5363 203.424 76.7422 202.281V196.117C78.1076 196.317 79.7092 196.424 81.5509 196.424C84.8931 196.424 87.5861 195.499 89.6347 193.654C92.0892 191.405 93.3165 188.877 93.3165 186.077C93.3165 184.164 92.3594 180.238 90.4521 174.3L77.7657 134.863H89.1214L98.2263 164.358C100.272 171.055 101.125 175.73 100.784 178.395C105.764 165.079 109.242 150.568 111.221 134.863H122.169" fill="url(#paint0_linear_3210_129)"/>
<path d="M172.805 166.709C172.805 172.572 170.653 177.386 166.363 181.152C162.07 184.902 156.302 186.782 149.079 186.782C142.324 186.782 135.777 184.619 129.435 180.326L132.402 174.387C137.859 177.118 142.799 178.482 147.232 178.482C151.392 178.482 154.648 177.555 157.003 175.724C159.353 173.88 160.762 171.308 160.762 168.046C160.762 163.941 157.901 160.432 152.654 157.488C147.81 154.826 138.129 149.27 138.129 149.27C132.883 145.44 130.253 141.33 130.253 134.558C130.253 128.957 132.214 124.43 136.132 120.986C140.058 117.534 145.123 115.808 151.325 115.808C157.737 115.808 163.567 117.521 168.818 120.935L166.151 126.869C161.658 124.961 157.228 124.004 152.859 124.004C149.315 124.004 146.584 124.856 144.679 126.571C142.765 128.269 141.581 130.455 141.581 133.12C141.581 137.215 144.503 140.767 149.898 143.768C154.803 146.431 164.721 152.094 164.721 152.094C170.117 155.917 172.805 159.994 172.805 166.709" fill="url(#paint1_linear_3210_129)"/>
<path fill-rule="evenodd" clip-rule="evenodd" d="M193.469 172.042C190.671 167.535 189.27 160.303 189.27 150.33C189.27 132.921 194.558 124.21 205.129 124.21C210.656 124.21 214.713 126.294 217.307 130.456C220.101 134.965 221.502 142.135 221.502 151.968C221.502 169.517 216.214 178.295 205.643 178.295C200.118 178.295 196.06 176.214 193.469 172.043V172.042ZM234.598 187.541L221.903 181.274C223.034 180.346 224.107 179.345 225.079 178.186C230.469 171.843 233.166 162.454 233.166 150.024C233.166 127.151 224.197 115.707 206.259 115.707C197.459 115.707 190.602 118.608 185.692 124.417C180.301 130.768 177.608 140.122 177.608 152.481C177.608 164.634 179.993 173.55 184.768 179.214C189.118 184.333 195.698 186.896 204.505 186.896C207.791 186.896 210.806 186.49 213.546 185.681L230.078 195.312L234.586 187.54" fill="url(#paint2_linear_3210_129)"/>
<path d="M276.037 185.873H243.197V116.733H254.248V177.368H276.037V185.873ZM283.918 185.866H285.749V178.832H288.144V177.395H281.428V178.832H283.918V185.866ZM297.851 185.866H299.577V177.395H296.981L294.868 183.169L292.568 177.395H290.067V185.866H291.7V179.419H291.792L294.201 185.866H295.446L297.851 179.419V185.866Z" fill="url(#paint3_linear_3210_129)"/>
<path fill-rule="evenodd" clip-rule="evenodd" d="M289.908 93.5746C283.229 93.4074 278.057 94.074 273.719 95.9136C272.467 96.4145 270.467 96.4145 270.296 98.0021C270.967 98.6687 271.048 99.7538 271.637 100.676C272.635 102.348 274.384 104.599 275.973 105.772C277.725 107.11 279.478 108.441 281.316 109.61C284.568 111.624 288.241 112.789 291.408 114.794C293.25 115.962 295.079 117.464 296.921 118.721C297.835 119.389 298.414 120.477 299.587 120.89V120.637C298.999 119.887 298.836 118.802 298.254 117.961C297.421 117.132 296.585 116.375 295.749 115.544C293.328 112.286 290.32 109.449 287.073 107.11C284.401 105.267 278.556 102.76 277.476 99.6782L277.306 99.5079C279.143 99.3384 281.316 98.6687 283.067 98.1624C285.9 97.4125 288.487 97.582 291.408 96.8322C292.745 96.4954 294.08 96.0754 295.422 95.6646V94.9071C293.911 93.4074 292.83 91.399 291.246 89.9802C286.993 86.3057 282.315 82.7159 277.476 79.7042C274.885 78.0334 271.548 76.9529 268.792 75.5287C267.796 75.0262 266.129 74.7789 265.543 73.9388C264.04 72.1016 263.202 69.6824 262.119 67.5069C259.702 62.9176 257.361 57.8235 255.278 52.9706C253.777 49.7145 252.859 46.4585 251.022 43.4498C242.424 29.2449 233.081 20.6458 218.727 12.2071C215.64 10.4499 211.969 9.69855 208.05 8.77992C205.961 8.69206 203.876 8.52945 201.79 8.44776C200.453 7.86052 199.116 6.27218 197.949 5.52001C193.191 2.51442 180.93 -4.00001 177.422 4.60292C175.168 10.0361 180.761 15.3799 182.68 18.1381C184.098 20.0571 185.936 22.2326 186.933 24.4013C187.518 25.8216 187.685 27.3283 188.272 28.8295C189.605 32.5048 190.855 36.5994 192.611 40.0257C193.526 41.7805 194.526 43.6209 195.694 45.2007C196.368 46.1255 197.533 46.5371 197.783 48.046C196.619 49.7145 196.528 52.2207 195.861 54.3108C192.859 63.7514 194.025 75.4455 198.283 82.3784C199.615 84.4669 202.791 89.0623 207.046 87.3037C210.801 85.8032 209.967 81.0413 211.05 76.8666C211.3 75.857 211.133 75.1942 211.632 74.5276V74.6964C212.799 77.0315 213.971 79.2818 215.055 81.6285C217.646 85.7177 222.148 89.9794 225.906 92.817C227.903 94.3268 229.489 96.9123 231.993 97.8341V97.5813H231.829C231.326 96.8314 230.577 96.4946 229.909 95.9128C228.407 94.4084 226.742 92.5696 225.569 90.8996C222.066 86.2232 218.974 81.0413 216.226 75.6952C214.887 73.0996 213.722 70.262 212.636 67.6741C212.136 66.6761 212.136 65.1679 211.3 64.6685C210.045 66.5035 208.214 68.0933 207.297 70.3421C205.711 73.9381 205.545 78.3648 204.956 82.9618C204.624 83.0489 204.793 82.9618 204.624 83.1275C201.958 82.4601 201.039 79.7034 200.036 77.3721C197.533 71.4334 197.112 61.9103 199.285 55.0591C199.866 53.3081 202.377 47.7948 201.371 46.124C200.866 44.5303 199.2 43.6193 198.284 42.3616C197.201 40.7741 196.026 38.7734 195.283 37.0155C193.278 32.3391 192.271 27.1572 190.108 22.4808C189.106 20.3052 187.35 18.0495 185.936 16.0481C184.348 13.7923 182.597 12.2055 181.343 9.53517C180.93 8.61423 180.345 7.10912 181.01 6.11034C181.174 5.44063 181.512 5.18862 182.182 5.02139C183.26 4.10198 186.351 5.26954 187.434 5.77047C190.524 7.02049 193.111 8.19652 195.694 9.94747C196.864 10.7844 198.115 12.3712 199.615 12.7928H201.371C204.04 13.3731 207.046 12.9546 209.551 13.7099C213.971 15.1294 217.975 17.2172 221.566 19.4737C232.494 26.4081 241.507 36.268 247.595 48.0445C248.599 49.9635 249.02 51.7198 249.936 53.7204C251.688 57.8219 253.86 61.9989 255.609 66.0048C257.361 69.9314 259.033 73.9381 261.54 77.2011C262.788 78.952 267.796 79.8714 270.05 80.7908C271.715 81.5399 274.306 82.2096 275.808 83.1275C278.645 84.8784 281.476 86.8868 284.151 88.8111C285.483 89.813 289.657 91.8999 289.908 93.573" fill="url(#paint4_linear_3210_129)"/>
<path fill-rule="evenodd" clip-rule="evenodd" d="M204.79 20.9695C203.637 20.9611 202.487 21.1023 201.37 21.3895V21.5568H201.532C202.205 22.89 203.375 23.8164 204.202 24.9839C204.874 26.321 205.46 27.6527 206.126 28.9914C206.208 28.9089 206.288 28.8218 206.288 28.8218C207.465 27.9895 208.048 26.6547 208.048 24.6464C207.544 24.0576 207.465 23.4773 207.044 22.89C206.545 22.0569 205.46 21.6392 204.79 20.9695" fill="url(#paint5_linear_3210_129)"/>
<defs>
<linearGradient id="paint0_linear_3210_129" x1="-2.65955e-06" y1="123" x2="78.5" y2="240.5" gradientUnits="userSpaceOnUse">
<stop stop-color="#3AD4AF"/>
<stop offset="0.432292" stop-color="#243244"/>
<stop offset="1" stop-color="#243244"/>
</linearGradient>
<linearGradient id="paint1_linear_3210_129" x1="136.971" y1="123.202" x2="170.016" y2="135.339" gradientUnits="userSpaceOnUse">
<stop stop-color="#3AD4AF"/>
<stop offset="0.484375" stop-color="#243244"/>
<stop offset="1" stop-color="#243244"/>
</linearGradient>
<linearGradient id="paint2_linear_3210_129" x1="187.511" y1="124" x2="229.091" y2="141.893" gradientUnits="userSpaceOnUse">
<stop stop-color="#3AD4AF"/>
<stop offset="0.484375" stop-color="#243244"/>
<stop offset="1" stop-color="#243244"/>
</linearGradient>
<linearGradient id="paint3_linear_3210_129" x1="252.994" y1="123.936" x2="292.302" y2="143.203" gradientUnits="userSpaceOnUse">
<stop stop-color="#3AD4AF"/>
<stop offset="0.484375" stop-color="#243244"/>
<stop offset="1" stop-color="#243244"/>
</linearGradient>
<linearGradient id="paint4_linear_3210_129" x1="238.242" y1="0.318787" x2="238.242" y2="120.89" gradientUnits="userSpaceOnUse">
<stop stop-color="#3AD4AF"/>
<stop offset="0.484375" stop-color="#243244"/>
<stop offset="1" stop-color="#243244"/>
</linearGradient>
<linearGradient id="paint5_linear_3210_129" x1="204.709" y1="20.9692" x2="204.709" y2="28.9914" gradientUnits="userSpaceOnUse">
<stop stop-color="#3AD4AF"/>
<stop offset="0.484375" stop-color="#243244"/>
<stop offset="1" stop-color="#243244"/>
</linearGradient>
</defs>
</svg>
