<svg width="186" height="186" viewBox="0 0 186 186" fill="none" xmlns="http://www.w3.org/2000/svg">
<path d="M163.735 44.0791L99.5899 6.87184C95.5488 4.57009 90.255 4.57009 86.1819 6.87184L21.5353 44.0791C17.3663 46.4782 14.5312 50.9873 14.5312 55.8102V130.126C14.5312 134.949 17.4259 139.459 21.5963 141.872L38.64 151.59C46.8168 155.618 49.0822 155.618 52.8022 155.618C64.9125 155.618 71.2017 148.296 71.2017 135.524V62.156C71.2031 61.1199 71.8498 59.5781 70.8311 59.5781H62.6617C61.627 59.5781 59.5781 61.1199 59.5781 62.1545V135.523C59.5781 141.184 54.3236 146.818 44.7533 142.033L27.1386 131.842C26.5253 131.508 26.1562 130.835 26.1562 130.126V55.8102C26.1562 55.1098 26.829 54.4065 27.451 54.0475L91.9378 16.9042C92.5408 16.5627 93.3938 16.5627 93.9939 16.9042L157.878 54.0388C158.489 54.4065 158.392 55.088 158.392 55.8102V130.126C158.392 130.835 158.526 131.525 157.923 131.867L93.792 169.032C93.2427 169.362 92.5277 169.362 91.9247 169.032L75.4797 159.225C74.9842 158.937 74.3869 158.834 73.9103 159.1C69.3402 161.691 68.4916 162.035 64.2049 163.522C63.1485 163.889 61.5907 164.527 64.7977 166.325L86.3011 179.045C88.3587 180.237 90.6997 180.856 93.0538 180.856C95.4398 180.856 97.775 180.237 99.8341 179.045L163.737 141.872C167.909 139.442 170.017 134.949 170.017 130.126V55.8102C170.016 50.9873 167.907 46.4898 163.735 44.0791V44.0791ZM112.947 118.35C95.9062 118.35 92.1543 113.649 90.9031 105.176C90.7549 104.263 89.9819 103.172 89.0519 103.172H80.7255C79.6952 103.172 78.8655 104.422 78.8655 105.447C78.8655 116.297 84.7651 129.441 112.947 129.441C133.346 129.441 145.044 121.515 145.044 107.486C145.044 93.5769 135.646 89.9266 115.862 87.3081C95.8641 84.6649 93.8326 83.3295 93.8326 78.6446C93.8326 74.7822 95.5531 69.6308 110.36 69.6308C123.59 69.6308 128.466 72.4703 130.473 81.3881C130.646 82.2265 131.412 82.8281 132.277 82.8281H140.638C141.152 82.8281 141.642 82.6203 142.002 82.2527C142.352 81.8574 142.536 81.3619 142.491 80.8301C141.193 65.472 130.992 58.3154 110.359 58.3154C92.0032 58.3154 81.0553 66.0663 81.0553 79.0587C81.0553 93.1511 91.9494 97.0455 109.569 98.7878C130.646 100.854 132.285 103.935 132.285 108.081C132.285 115.282 126.505 118.35 112.947 118.35Z" fill="url(#paint0_linear_3207_91)"/>
<defs>
<linearGradient id="paint0_linear_3207_91" x1="92.2742" y1="5.14552" x2="92.2742" y2="180.856" gradientUnits="userSpaceOnUse">
<stop stop-color="#3AD4AF"/>
<stop offset="0.390625" stop-color="#243244"/>
<stop offset="1" stop-color="#243244"/>
</linearGradient>
</defs>
</svg>
