<svg width="533" height="545" viewBox="0 0 533 545" fill="none" xmlns="http://www.w3.org/2000/svg">
<path d="M145.349 503.688C135.696 498.643 129.342 487.671 126.485 471.451C123.634 455.266 124.345 434.23 128.471 409.732C136.719 360.759 158.535 298.407 192.014 234.335C225.493 170.262 264.219 116.746 299.711 82.0078C317.465 64.6308 334.328 52.0351 349.242 45.1325C364.189 38.2149 376.824 37.1646 386.478 42.2088C396.132 47.253 402.485 58.2256 405.342 74.4457C408.193 90.6308 407.483 111.666 403.357 136.164C395.109 185.137 373.292 247.489 339.813 311.562C306.335 375.634 267.609 429.151 232.116 463.889C214.362 481.266 197.5 493.861 182.585 500.764C167.639 507.681 155.003 508.732 145.349 503.688Z" stroke="url(#paint0_linear_3206_65)" stroke-width="4"/>
<path d="M411.485 483.085C402.428 489.135 389.752 489.445 374.15 484.17C358.582 478.906 340.466 468.191 320.951 452.817C281.939 422.085 237.699 373.029 197.543 312.915C157.388 252.801 129.013 193.148 115.562 145.341C108.833 121.426 105.871 100.589 106.971 84.1913C108.072 67.7583 113.213 56.1678 122.27 50.1176C131.327 44.0675 144.003 43.7571 159.605 49.0323C175.173 54.2961 193.289 65.0114 212.804 80.3848C251.816 111.117 296.056 160.173 336.211 220.287C376.366 280.401 404.742 340.055 418.193 387.861C424.922 411.776 427.883 432.614 426.784 449.011C425.683 465.444 420.542 477.035 411.485 483.085Z" stroke="url(#paint1_linear_3206_65)" stroke-width="4"/>
<path d="M2.33975 271.631C2.29647 282.511 9.12472 293.25 22.3268 303.351C35.4973 313.428 54.7031 322.619 78.6293 330.403C126.459 345.965 192.706 355.769 266.012 356.06C339.319 356.352 405.642 347.076 453.594 331.895C477.581 324.301 496.859 315.264 510.11 305.291C523.392 295.295 530.305 284.611 530.348 273.731C530.392 262.851 523.563 252.113 510.361 242.011C497.191 231.934 477.985 222.744 454.059 214.959C406.229 199.397 339.982 189.594 266.676 189.302C193.37 189.01 127.046 198.287 79.0944 213.468C55.1071 221.062 35.8288 230.099 22.5785 240.071C9.29649 250.067 2.38303 260.751 2.33975 271.631Z" stroke="url(#paint2_linear_3206_65)" stroke-width="4"/>
<ellipse cx="264" cy="270.5" rx="46" ry="45.5" fill="url(#paint3_linear_3206_65)"/>
<defs>
<linearGradient id="paint0_linear_3206_65" x1="341.586" y1="312.488" x2="190.241" y2="233.408" gradientUnits="userSpaceOnUse">
<stop stop-color="#2A2552"/>
<stop offset="0.875" stop-color="#2B2753"/>
<stop offset="1" stop-color="#3AD4AF"/>
</linearGradient>
<linearGradient id="paint1_linear_3206_65" x1="337.874" y1="219.176" x2="195.88" y2="314.026" gradientUnits="userSpaceOnUse">
<stop stop-color="#2A2552"/>
<stop offset="0.864417" stop-color="#2B2753"/>
<stop offset="1" stop-color="#3AD4AF"/>
</linearGradient>
<linearGradient id="paint2_linear_3206_65" x1="266.684" y1="187.302" x2="266.004" y2="358.06" gradientUnits="userSpaceOnUse">
<stop stop-color="#2A2552"/>
<stop offset="0.778316" stop-color="#2B2753"/>
<stop offset="1" stop-color="#3AD4AF"/>
</linearGradient>
<linearGradient id="paint3_linear_3206_65" x1="264" y1="225" x2="264" y2="316" gradientUnits="userSpaceOnUse">
<stop stop-color="#3AD4AF"/>
<stop offset="1" stop-color="#414752"/>
</linearGradient>
</defs>
</svg>
