<svg width="194" height="199" viewBox="0 0 194 199" fill="none" xmlns="http://www.w3.org/2000/svg">
<path d="M54.4499 180.212C52.2336 179.054 50.2476 176.26 49.2866 170.804C48.338 165.418 48.5438 158.167 50.0139 149.438C52.9466 132.025 60.7512 109.647 72.8293 86.5311C84.9074 63.4158 98.8207 44.2295 111.44 31.8781C117.767 25.6862 123.602 21.3762 128.565 19.0794C133.592 16.7527 137.02 16.7872 139.237 17.9452C141.453 19.1033 143.439 21.8979 144.4 27.3535C145.348 32.739 145.143 39.9906 143.673 48.7199C140.74 66.1328 132.935 88.511 120.857 111.626C108.779 134.742 94.8658 153.928 82.2462 166.279C75.9198 172.471 70.0845 176.781 65.1218 179.078C60.0945 181.405 56.6662 181.37 54.4499 180.212Z" stroke="url(#paint0_linear_3214_205)" stroke-width="8"/>
<path d="M148.042 172.888C145.962 174.277 142.558 174.679 137.31 172.904C132.129 171.153 125.866 167.493 118.912 162.016C105.041 151.088 89.1507 133.504 74.664 111.817C60.1772 90.1299 50.0184 68.7175 45.2358 51.7193C42.8382 43.1979 41.8562 36.0102 42.2219 30.554C42.5924 25.0268 44.2674 22.0354 46.3468 20.6464C48.4261 19.2574 51.8309 18.8556 57.0787 20.6299C62.2591 22.3814 68.5228 26.041 75.4766 31.5189C89.3477 42.4461 105.238 60.0301 119.725 81.7173C134.211 103.405 144.37 124.817 149.153 141.815C151.55 150.337 152.532 157.524 152.167 162.98C151.796 168.508 150.121 171.499 148.042 172.888Z" stroke="url(#paint1_linear_3214_205)" stroke-width="8"/>
<path d="M4.12367 98.612C4.11382 101.088 5.66743 104.147 10.1192 107.553C14.5078 110.911 21.1174 114.117 29.6482 116.892C46.6647 122.429 70.4385 125.971 96.8922 126.076C123.346 126.181 147.147 122.828 164.207 117.427C172.76 114.72 179.395 111.567 183.81 108.244C188.289 104.873 189.866 101.827 189.876 99.3509C189.886 96.8749 188.333 93.8163 183.881 90.41C179.492 87.0522 172.883 83.8464 164.352 81.0707C147.335 75.5342 123.562 71.9924 97.1078 71.8872C70.654 71.782 46.8529 75.1345 29.7929 80.5355C21.2402 83.2432 14.6053 86.3963 10.1902 89.7191C5.71141 93.0899 4.13352 96.136 4.12367 98.612Z" stroke="url(#paint2_linear_3214_205)" stroke-width="8"/>
<ellipse cx="96.1463" cy="98.1871" rx="16.7528" ry="16.5707" fill="url(#paint3_linear_3214_205)"/>
<defs>
<linearGradient id="paint0_linear_3214_205" x1="124.402" y1="113.479" x2="69.2841" y2="84.6787" gradientUnits="userSpaceOnUse">
<stop stop-color="#2A2552"/>
<stop offset="0.875" stop-color="#2B2753"/>
<stop offset="1" stop-color="#3AD4AF"/>
</linearGradient>
<linearGradient id="paint1_linear_3214_205" x1="123.051" y1="79.4955" x2="71.3378" y2="114.039" gradientUnits="userSpaceOnUse">
<stop stop-color="#2A2552"/>
<stop offset="0.864417" stop-color="#2B2753"/>
<stop offset="1" stop-color="#3AD4AF"/>
</linearGradient>
<linearGradient id="paint2_linear_3214_205" x1="97.1237" y1="67.8872" x2="96.8763" y2="130.076" gradientUnits="userSpaceOnUse">
<stop stop-color="#2A2552"/>
<stop offset="0.778316" stop-color="#2B2753"/>
<stop offset="1" stop-color="#3AD4AF"/>
</linearGradient>
<linearGradient id="paint3_linear_3214_205" x1="96.1463" y1="81.6165" x2="96.1463" y2="114.758" gradientUnits="userSpaceOnUse">
<stop stop-color="#3AD4AF"/>
<stop offset="1" stop-color="#414752"/>
</linearGradient>
</defs>
</svg>
