<svg width="177" height="177" viewBox="0 0 177 177" fill="none" xmlns="http://www.w3.org/2000/svg">
<rect width="1728" height="1117" transform="translate(-568 -50)" fill="white"/>
<path d="M0 0H177V177H0V0Z" fill="url(#paint0_linear_3205_54)"/>
<path d="M77.0088 163.19C72.4808 163.19 70.2168 162.006 70.2168 159.636V98.7617H52.3164C51.1315 98.7617 50.264 98.3174 49.7139 97.4287C49.2061 96.54 48.9521 95.1012 48.9521 93.1123V89.6846C48.9521 87.6956 49.2061 86.2568 49.7139 85.3682C50.264 84.4795 51.1315 84.0352 52.3164 84.0352H105.7C106.885 84.0352 107.731 84.4795 108.239 85.3682C108.789 86.2568 109.064 87.6956 109.064 89.6846V93.1123C109.064 95.1012 108.789 96.54 108.239 97.4287C107.731 98.3174 106.885 98.7617 105.7 98.7617H87.7363V159.636C87.7363 162.006 85.4723 163.19 80.9443 163.19H77.0088ZM138.962 163.952C133.63 163.952 128.933 163.423 124.87 162.365C120.85 161.265 117.761 159.932 115.603 158.366C113.487 156.8 112.429 155.319 112.429 153.923C112.429 152.823 112.831 151.468 113.635 149.86C114.481 148.252 115.476 146.877 116.618 145.734C117.761 144.549 118.713 143.957 119.475 143.957C119.94 143.957 120.935 144.359 122.458 145.163C124.743 146.348 126.901 147.3 128.933 148.02C131.006 148.739 133.376 149.099 136.042 149.099C139.004 149.099 141.501 148.527 143.532 147.385C145.606 146.2 146.643 144.147 146.643 141.228C146.643 139.535 146.114 138.075 145.056 136.848C143.998 135.62 142.644 134.584 140.993 133.737C139.343 132.891 137.1 131.896 134.265 130.754L129.25 128.596C126.203 127.115 123.579 125.485 121.379 123.708C119.221 121.931 117.443 119.582 116.047 116.662C114.693 113.742 114.016 110.166 114.016 105.935C114.016 100.772 115.285 96.4766 117.824 93.0488C120.363 89.6211 123.664 87.1032 127.727 85.4951C131.789 83.887 136.148 83.083 140.803 83.083C144.611 83.083 148.06 83.485 151.149 84.2891C154.239 85.0508 156.651 86.0452 158.386 87.2725C160.163 88.4997 161.052 89.7269 161.052 90.9541C161.052 91.9697 160.713 93.2816 160.036 94.8896C159.401 96.4554 158.597 97.8307 157.624 99.0156C156.651 100.201 155.741 100.793 154.895 100.793C154.514 100.793 153.837 100.581 152.863 100.158C151.298 99.5234 149.711 99.0156 148.103 98.6348C146.537 98.2116 144.611 98 142.326 98C138.391 98 135.661 98.6348 134.138 99.9043C132.614 101.132 131.853 102.591 131.853 104.284C131.853 106.231 132.36 107.86 133.376 109.172C134.434 110.484 135.746 111.563 137.312 112.409C138.92 113.256 141.141 114.229 143.977 115.329C148.251 117.149 151.742 118.884 154.45 120.534C157.159 122.142 159.486 124.47 161.433 127.517C163.422 130.563 164.416 134.457 164.416 139.196C164.416 144.994 163.189 149.755 160.734 153.479C158.322 157.16 155.191 159.826 151.34 161.477C147.531 163.127 143.405 163.952 138.962 163.952Z" fill="white"/>
<defs>
<linearGradient id="paint0_linear_3205_54" x1="0" y1="0" x2="177" y2="177" gradientUnits="userSpaceOnUse">
<stop stop-color="#3AD4AF"/>
<stop offset="0.421875" stop-color="#243244"/>
</linearGradient>
</defs>
</svg>
