<svg width="1728" height="1081" viewBox="0 0 1728 1081" fill="none" xmlns="http://www.w3.org/2000/svg">
<path d="M1880 0H-40V1080H1880V0Z" fill="white"/>
<path d="M143.469 117.406V142.016C143.469 152.693 142.329 161.905 140.051 169.652C137.772 177.335 134.484 183.65 130.188 188.598C125.956 193.48 120.91 197.094 115.051 199.438C109.191 201.781 102.681 202.953 95.5195 202.953C89.7904 202.953 84.4518 202.237 79.5039 200.805C74.556 199.307 70.0964 196.996 66.125 193.871C62.2188 190.746 58.8333 186.807 55.9688 182.055C53.1693 177.237 51.0208 171.508 49.5234 164.867C48.026 158.227 47.2773 150.609 47.2773 142.016V117.406C47.2773 106.729 48.4167 97.582 50.6953 89.9648C53.0391 82.2826 56.3268 76 60.5586 71.1172C64.8555 66.2344 69.9336 62.6536 75.793 60.375C81.6523 58.0312 88.1628 56.8594 95.3242 56.8594C101.053 56.8594 106.359 57.6081 111.242 59.1055C116.19 60.5378 120.65 62.7839 124.621 65.8438C128.592 68.9036 131.978 72.8424 134.777 77.6602C137.577 82.4128 139.725 88.1094 141.223 94.75C142.72 101.326 143.469 108.878 143.469 117.406ZM115.246 145.727V113.598C115.246 108.454 114.953 103.962 114.367 100.121C113.846 96.2799 113.033 93.0247 111.926 90.3555C110.819 87.6211 109.452 85.4076 107.824 83.7148C106.197 82.0221 104.341 80.7852 102.258 80.0039C100.174 79.2227 97.8633 78.832 95.3242 78.832C92.1341 78.832 89.3021 79.4505 86.8281 80.6875C84.4193 81.9245 82.3685 83.9102 80.6758 86.6445C78.9831 89.3138 77.681 92.8945 76.7695 97.3867C75.9232 101.814 75.5 107.217 75.5 113.598V145.727C75.5 150.87 75.7604 155.395 76.2812 159.301C76.8672 163.207 77.7135 166.56 78.8203 169.359C79.9922 172.094 81.3594 174.34 82.9219 176.098C84.5495 177.79 86.4049 179.027 88.4883 179.809C90.6367 180.59 92.9805 180.98 95.5195 180.98C98.6445 180.98 101.411 180.362 103.82 179.125C106.294 177.823 108.378 175.805 110.07 173.07C111.828 170.271 113.13 166.625 113.977 162.133C114.823 157.641 115.246 152.172 115.246 145.727ZM191.418 117.699H206.457C211.275 117.699 215.246 116.885 218.371 115.258C221.496 113.565 223.807 111.221 225.305 108.227C226.867 105.167 227.648 101.618 227.648 97.582C227.648 93.9362 226.932 90.7135 225.5 87.9141C224.133 85.0495 222.017 82.8359 219.152 81.2734C216.288 79.6458 212.674 78.832 208.312 78.832C204.862 78.832 201.672 79.5156 198.742 80.8828C195.812 82.25 193.469 84.1706 191.711 86.6445C189.953 89.1185 189.074 92.1133 189.074 95.6289H160.852C160.852 87.8164 162.935 81.013 167.102 75.2188C171.333 69.4245 176.997 64.8997 184.094 61.6445C191.19 58.3893 199.003 56.7617 207.531 56.7617C217.167 56.7617 225.598 58.3242 232.824 61.4492C240.051 64.5091 245.682 69.0339 249.719 75.0234C253.755 81.013 255.773 88.4349 255.773 97.2891C255.773 101.781 254.732 106.143 252.648 110.375C250.565 114.542 247.57 118.318 243.664 121.703C239.823 125.023 235.135 127.693 229.602 129.711C224.068 131.664 217.85 132.641 210.949 132.641H191.418V117.699ZM191.418 139.086V124.535H210.949C218.697 124.535 225.5 125.414 231.359 127.172C237.219 128.93 242.134 131.469 246.105 134.789C250.077 138.044 253.072 141.918 255.09 146.41C257.108 150.837 258.117 155.753 258.117 161.156C258.117 167.797 256.848 173.721 254.309 178.93C251.77 184.073 248.189 188.435 243.566 192.016C239.009 195.596 233.671 198.331 227.551 200.219C221.431 202.042 214.758 202.953 207.531 202.953C201.542 202.953 195.65 202.139 189.855 200.512C184.126 198.819 178.918 196.312 174.23 192.992C169.608 189.607 165.897 185.375 163.098 180.297C160.363 175.154 158.996 169.066 158.996 162.035H187.219C187.219 165.681 188.13 168.936 189.953 171.801C191.776 174.665 194.283 176.911 197.473 178.539C200.728 180.167 204.341 180.98 208.312 180.98C212.805 180.98 216.646 180.167 219.836 178.539C223.091 176.846 225.565 174.503 227.258 171.508C229.016 168.448 229.895 164.9 229.895 160.863C229.895 155.655 228.951 151.488 227.062 148.363C225.174 145.173 222.473 142.829 218.957 141.332C215.441 139.835 211.275 139.086 206.457 139.086H191.418Z" fill="#C5C3C3" fill-opacity="0.1"/>
<path d="M61.5 266.5H167.5" stroke="#C5C3C3" stroke-opacity="0.1" stroke-width="20" stroke-linecap="round"/>
<path d="M61.5 266.5V1080.5" stroke="#C5C3C3" stroke-opacity="0.1" stroke-width="5"/>
</svg>
