<svg width="1728" height="1081" viewBox="0 0 1728 1081" fill="none" xmlns="http://www.w3.org/2000/svg">
<path d="M1880 0H-40V1080H1880V0Z" fill="white"/>
<path d="M143.469 117.406V142.016C143.469 152.693 142.329 161.905 140.051 169.652C137.772 177.335 134.484 183.65 130.188 188.598C125.956 193.48 120.91 197.094 115.051 199.438C109.191 201.781 102.681 202.953 95.5195 202.953C89.7904 202.953 84.4518 202.237 79.5039 200.805C74.556 199.307 70.0964 196.996 66.125 193.871C62.2188 190.746 58.8333 186.807 55.9688 182.055C53.1693 177.237 51.0208 171.508 49.5234 164.867C48.026 158.227 47.2773 150.609 47.2773 142.016V117.406C47.2773 106.729 48.4167 97.582 50.6953 89.9648C53.0391 82.2826 56.3268 76 60.5586 71.1172C64.8555 66.2344 69.9336 62.6536 75.793 60.375C81.6523 58.0312 88.1628 56.8594 95.3242 56.8594C101.053 56.8594 106.359 57.6081 111.242 59.1055C116.19 60.5378 120.65 62.7839 124.621 65.8438C128.592 68.9036 131.978 72.8424 134.777 77.6602C137.577 82.4128 139.725 88.1094 141.223 94.75C142.72 101.326 143.469 108.878 143.469 117.406ZM115.246 145.727V113.598C115.246 108.454 114.953 103.962 114.367 100.121C113.846 96.2799 113.033 93.0247 111.926 90.3555C110.819 87.6211 109.452 85.4076 107.824 83.7148C106.197 82.0221 104.341 80.7852 102.258 80.0039C100.174 79.2227 97.8633 78.832 95.3242 78.832C92.1341 78.832 89.3021 79.4505 86.8281 80.6875C84.4193 81.9245 82.3685 83.9102 80.6758 86.6445C78.9831 89.3138 77.681 92.8945 76.7695 97.3867C75.9232 101.814 75.5 107.217 75.5 113.598V145.727C75.5 150.87 75.7604 155.395 76.2812 159.301C76.8672 163.207 77.7135 166.56 78.8203 169.359C79.9922 172.094 81.3594 174.34 82.9219 176.098C84.5495 177.79 86.4049 179.027 88.4883 179.809C90.6367 180.59 92.9805 180.98 95.5195 180.98C98.6445 180.98 101.411 180.362 103.82 179.125C106.294 177.823 108.378 175.805 110.07 173.07C111.828 170.271 113.13 166.625 113.977 162.133C114.823 157.641 115.246 152.172 115.246 145.727ZM235.168 57.3477H239.27V79.8086H237.609C230.188 79.8086 223.579 80.9154 217.785 83.1289C211.991 85.3424 207.076 88.5 203.039 92.6016C199.068 96.638 196.008 101.521 193.859 107.25C191.776 112.979 190.734 119.392 190.734 126.488V150.121C190.734 155.199 191.223 159.691 192.199 163.598C193.241 167.439 194.706 170.661 196.594 173.266C198.547 175.805 200.826 177.725 203.43 179.027C206.034 180.264 208.964 180.883 212.219 180.883C215.279 180.883 218.046 180.232 220.52 178.93C223.059 177.628 225.207 175.805 226.965 173.461C228.788 171.052 230.155 168.253 231.066 165.062C232.043 161.807 232.531 158.259 232.531 154.418C232.531 150.577 232.043 147.029 231.066 143.773C230.155 140.518 228.788 137.719 226.965 135.375C225.142 132.966 222.928 131.111 220.324 129.809C217.72 128.507 214.79 127.855 211.535 127.855C207.108 127.855 203.202 128.897 199.816 130.98C196.496 132.999 193.892 135.603 192.004 138.793C190.116 141.983 189.107 145.336 188.977 148.852L180.48 143.383C180.676 138.37 181.717 133.617 183.605 129.125C185.559 124.633 188.228 120.661 191.613 117.211C195.064 113.695 199.198 110.961 204.016 109.008C208.833 106.99 214.27 105.98 220.324 105.98C226.965 105.98 232.792 107.25 237.805 109.789C242.883 112.328 247.115 115.811 250.5 120.238C253.885 124.665 256.424 129.776 258.117 135.57C259.81 141.365 260.656 147.549 260.656 154.125C260.656 161.026 259.517 167.439 257.238 173.363C255.025 179.288 251.802 184.464 247.57 188.891C243.404 193.318 238.391 196.768 232.531 199.242C226.672 201.716 220.096 202.953 212.805 202.953C205.253 202.953 198.384 201.586 192.199 198.852C186.079 196.052 180.806 192.146 176.379 187.133C171.952 182.12 168.534 176.163 166.125 169.262C163.781 162.361 162.609 154.809 162.609 146.605V135.668C162.609 124.21 164.27 113.728 167.59 104.223C170.975 94.6523 175.826 86.3841 182.141 79.418C188.456 72.3867 196.073 66.9505 204.992 63.1094C213.911 59.2682 223.97 57.3477 235.168 57.3477Z" fill="#C5C3C3" fill-opacity="0.1"/>
<path d="M61.5 266.5H167.5" stroke="#C5C3C3" stroke-opacity="0.1" stroke-width="20" stroke-linecap="round"/>
<path d="M61.5 266.5V1080.5" stroke="#C5C3C3" stroke-opacity="0.1" stroke-width="5"/>
</svg>
