<svg width="112" height="111" viewBox="0 0 112 111" fill="none" xmlns="http://www.w3.org/2000/svg">
<path d="M82.5574 40.1082C80.565 40.9302 78.4568 41.4717 76.2998 41.7157C78.5667 40.4554 80.2715 38.453 81.0945 36.0844C78.9512 37.2743 76.6102 38.1091 74.172 38.5533C73.1452 37.5316 71.9103 36.7188 70.5424 36.1643C69.1744 35.6099 67.7021 35.3254 66.2147 35.3279C60.1927 35.3279 55.3194 39.8877 55.3194 45.5084C55.3152 46.2904 55.4097 47.0698 55.6006 47.8304C51.2825 47.6382 47.0541 46.5923 43.186 44.7596C39.3181 42.9271 35.8955 40.3479 33.1373 37.1875C32.1698 38.7363 31.6581 40.5034 31.6558 42.304C31.6558 45.8342 33.5955 48.9545 36.5246 50.7827C34.7892 50.7435 33.0894 50.3074 31.5695 49.5114V49.6375C31.5695 54.5754 35.3318 58.6834 40.3113 59.6185C39.3748 59.8555 38.4099 59.9755 37.4409 59.9756C36.7531 59.9767 36.0672 59.9134 35.3926 59.7865C36.7769 63.8315 40.8059 66.7732 45.5784 66.8573C41.7005 69.695 36.9391 71.2286 32.0431 71.2173C31.174 71.2162 30.3057 71.1671 29.4426 71.0703C34.4234 74.09 40.2133 75.6873 46.1228 75.672C66.1914 75.672 77.1553 60.1542 77.1553 46.6958C77.1553 46.2545 77.143 45.8132 77.1209 45.3824C79.2489 43.9452 81.0898 42.1591 82.5574 40.1082Z" fill="#414752"/>
<path d="M56 109C85.8234 109 110 85.0472 110 55.5C110 25.9528 85.8234 2 56 2C26.1766 2 2 25.9528 2 55.5C2 85.0472 26.1766 109 56 109Z" stroke="#414752" stroke-width="3"/>
</svg>
